<svg width="40" height="40" viewBox="0 0 40 40" fill="none" xmlns="http://www.w3.org/2000/svg">
<rect width="40" height="40" rx="12" fill="white"/>
<path d="M14.21 24.2399V39.9949H9.075C4.065 39.9949 0 35.935 0 30.92V17.35H7.325C11.125 17.35 14.21 20.435 14.21 24.235V24.2399Z" fill="black"/>
<path d="M39.81 7.205H33.82C27.605 7.21 22.57 12.25 22.56 18.465V40H18.58V24.24C18.57 18.025 13.535 12.99 7.32 12.985H0V9.065C0 4.06 4.065 0 9.075 0H30.93C35.22 0 38.925 3.01 39.81 7.205Z" fill="black"/>
<path d="M40 11.58V30.925C40 35.935 35.94 40 30.925 40H26.925V18.465C26.93 14.665 30.01 11.585 33.81 11.58H39.995H40Z" fill="black"/>
</svg>
