<svg width="537" height="94" viewBox="0 0 537 94" fill="none" xmlns="http://www.w3.org/2000/svg">
<path d="M511.865 23H392.135C378.253 23 367 34.1929 367 48C367 61.8071 378.253 73 392.135 73H511.865C525.747 73 537 61.8071 537 48C537 34.1929 525.747 23 511.865 23Z" fill="black"/>
<path d="M166.3 52.46C166.3 60.6 162.03 65.47 154.57 65.82C147.12 65.46 142.84 60.6 142.84 52.46V23.27H133.91V52.46C133.91 60.6 129.64 65.47 122.18 65.82C114.73 65.46 110.45 60.6 110.45 52.46V23.27H101.74V53.27C101.74 64.94 108.73 72.89 119.72 74L121.74 74.15C121.88 74.15 122.02 74.15 122.16 74.15C122.32 74.15 122.48 74.15 122.64 74.15L124.75 74.1V74C130.11 73.61 135.06 70.99 138.39 66.77C141.74 71.01 146.72 73.64 152.12 74.01L154.14 74.16C154.28 74.16 154.42 74.16 154.56 74.16H155.04L157.15 74.11V74.01C168.09 72.86 175.04 64.92 175.04 53.28V23.28H166.33L166.3 52.47V52.46Z" fill="black"/>
<path d="M194.58 23.28H185.94V74.17H194.58V23.28Z" fill="black"/>
<path d="M347.8 23.28H339.16V74.17H347.8V23.28Z" fill="black"/>
<path d="M328.06 6.52002H319.42V74.16H328.06V6.52002Z" fill="black"/>
<path d="M230.48 23.28C228.51 23.28 226.55 23.52 224.65 24.01C218.5 25.46 213.15 29.23 209.7 34.53C206.86 38.9 205.4 44.03 205.51 49.25V93.81H214.15V69.19C218.15 72.89 223.34 75.03 228.78 75.25H230.51C244.05 75.27 255.06 63.45 255.06 49.25C255.41 35.3 244.42 23.69 230.48 23.28ZM213.88 49.34V49.16C213.88 40.78 220.17 31.74 230.33 31.74C239.74 31.74 246.06 38.71 246.06 49.08V49.26C246.06 60.76 238.14 66.78 230.33 66.78C220.98 66.49 213.62 58.69 213.88 49.34Z" fill="black"/>
<path d="M286.04 23.28C284.07 23.28 282.11 23.52 280.21 24.01C274.06 25.46 268.7 29.23 265.26 34.53C262.41 38.9 260.96 44.03 261.07 49.25V93.81H269.71V69.19C273.71 72.89 278.9 75.03 284.34 75.25H286.07C299.61 75.27 310.62 63.45 310.62 49.25C310.97 35.3 299.99 23.7 286.04 23.28ZM269.44 49.34V49.16C269.44 40.78 275.73 31.74 285.89 31.74C295.3 31.74 301.62 38.71 301.62 49.08V49.26C301.62 60.76 293.7 66.78 285.89 66.78C276.54 66.49 269.18 58.69 269.44 49.34Z" fill="black"/>
<path d="M190.28 6.52002C187.11 6.52002 184.55 9.09002 184.55 12.25C184.55 15.41 187.12 17.98 190.28 17.98C193.44 17.98 196.01 15.41 196.01 12.25C196.01 9.08002 193.44 6.52002 190.28 6.52002Z" fill="black"/>
<path d="M343.54 17.98C346.705 17.98 349.27 15.4146 349.27 12.25C349.27 9.08543 346.705 6.52002 343.54 6.52002C340.375 6.52002 337.81 9.08543 337.81 12.25C337.81 15.4146 340.375 17.98 343.54 17.98Z" fill="black"/>
<path d="M353.08 13.4099C353.08 8.98994 356.23 5.68994 360.68 5.68994C365.13 5.68994 368.25 8.98994 368.25 13.4099C368.25 17.8299 365.1 21.0899 360.68 21.0899C356.26 21.0899 353.08 17.8299 353.08 13.4099ZM354.46 13.4099C354.46 17.1299 356.92 19.8199 360.68 19.8199C364.44 19.8199 366.86 17.1299 366.86 13.4099C366.86 9.68994 364.4 6.99994 360.68 6.99994C356.96 6.99994 354.46 9.68994 354.46 13.4099ZM361.99 14.1399L364.29 17.4399L362.33 17.4799L360.22 14.2199H359.34V17.4799H357.69V9.21994H361.26C362.95 9.21994 364.03 10.1799 364.03 11.7199C364.03 13.0299 363.26 13.9099 361.99 14.1399ZM359.34 10.7199V12.8299H361.15C361.84 12.8299 362.38 12.5199 362.38 11.7599C362.38 10.9999 361.84 10.7199 361.15 10.7199H359.34Z" fill="black"/>
<path d="M28.42 48.4799V79.9899H18.15C8.13 79.9899 0 71.87 0 61.84V34.7H14.65C22.25 34.7 28.42 40.87 28.42 48.47V48.4799Z" fill="black"/>
<path d="M79.62 14.41H67.64C55.21 14.42 45.14 24.5 45.12 36.93V80H37.16V48.48C37.14 36.05 27.07 25.98 14.64 25.97H0V18.13C0 8.12 8.13 0 18.15 0H61.86C70.44 0 77.85 6.02 79.62 14.41Z" fill="black"/>
<path d="M80 23.1599V61.8499C80 71.8699 71.88 79.9999 61.85 79.9999H53.85V36.9299C53.86 29.3299 60.02 23.1699 67.62 23.1599H79.99H80Z" fill="black"/>
<path d="M484.841 31.3599L484.985 31.2159H489.545H494.105L494.249 31.3599C494.345 31.4239 494.425 31.5359 494.489 31.6959L498.521 43.1199C501.209 50.6399 502.553 54.4159 502.553 54.4479C502.553 54.4799 502.585 54.4319 502.649 54.3039C502.777 53.8879 503.561 50.7999 505.001 45.0399C506.633 38.5119 507.417 35.1359 507.353 34.9119C507.353 34.8799 507.305 34.8159 507.209 34.7199C506.857 34.1759 505.881 33.9039 504.281 33.9039C503.833 33.9039 503.561 33.7919 503.465 33.5679C503.433 33.4399 503.481 33.0719 503.609 32.4639C503.769 31.8559 503.913 31.4879 504.041 31.3599L504.185 31.2159H504.713C506.601 31.3439 509.097 31.3759 512.201 31.3119L514.985 31.2159H515.369L515.513 31.3599C515.641 31.4879 515.705 31.5999 515.705 31.6959L515.273 33.6159C515.145 33.8079 514.761 33.9039 514.121 33.9039C513.065 33.9359 512.169 34.1279 511.433 34.4799C510.953 34.7039 510.601 35.0239 510.377 35.4399C510.281 35.5999 509.081 40.3199 506.777 49.5999C504.409 59.0719 503.225 63.7599 503.225 63.6639C503.193 63.7279 503.129 63.8079 503.033 63.9039C502.937 63.9679 502.537 63.9999 501.833 63.9999H500.777L500.633 63.8559C500.537 63.7919 498.953 59.4399 495.881 50.7999C492.617 41.5839 491.017 37.0559 491.081 37.2159L490.841 36.5439L487.913 48.1119C485.993 55.8239 485.033 59.7599 485.033 59.9199C485.033 60.1439 485.049 60.2719 485.081 60.3039C485.337 60.9759 486.361 61.3119 488.153 61.3119H488.633L488.825 61.4559C488.921 61.5839 488.969 61.7119 488.969 61.8399C488.969 62.3519 488.809 62.9759 488.489 63.7119C488.393 63.9039 488.105 63.9839 487.625 63.9519C487.497 63.9519 487.257 63.9519 486.905 63.9519C482.905 63.8239 479.769 63.8399 477.497 63.9999H477.065L476.921 63.8559C476.793 63.7279 476.729 63.5999 476.729 63.4719C476.729 62.9599 476.889 62.3359 477.209 61.5999C477.273 61.4079 477.529 61.3119 477.977 61.3119C479.417 61.3119 480.505 61.0719 481.241 60.5919C481.561 60.4319 481.817 60.1919 482.009 59.8719C482.105 59.7119 483.225 55.3599 485.369 46.8159C487.481 38.2719 488.521 33.9999 488.489 33.9999L486.521 33.9039C485.145 33.9039 484.393 33.7919 484.265 33.5679C484.233 33.4719 484.281 33.1039 484.409 32.4639C484.569 31.8559 484.713 31.4879 484.841 31.3599Z" fill="white"/>
<path d="M460.437 30.208L461.445 30.16H461.493C464.309 30.16 466.501 31.184 468.069 33.232C468.293 33.584 468.421 33.76 468.453 33.76L470.277 31.984L472.101 30.16H472.485C472.901 30.16 473.141 30.256 473.205 30.448C473.237 30.512 472.709 32.784 471.621 37.264C470.469 41.872 469.893 44.128 469.893 44.032C469.829 44.224 469.381 44.32 468.549 44.32H467.541L467.397 44.176C467.269 44.048 467.237 43.76 467.301 43.312C467.557 41.648 467.605 40.064 467.445 38.56C467.093 35.424 465.861 33.568 463.749 32.992C463.461 32.928 463.013 32.896 462.405 32.896C461.221 32.864 459.973 33.056 458.661 33.472C457.093 33.984 455.685 34.752 454.437 35.776C451.589 37.952 449.477 41.424 448.101 46.192C447.237 49.36 446.805 51.968 446.805 54.016C446.805 55.488 446.997 56.72 447.381 57.712C448.213 59.888 449.781 61.312 452.085 61.984C452.309 62.048 452.533 62.096 452.757 62.128C455.413 62.704 457.701 62.208 459.621 60.64C460.293 60.096 460.773 59.472 461.061 58.768C461.893 55.44 462.309 53.808 462.309 53.872C462.309 53.808 462.037 53.744 461.493 53.68L459.237 53.584C458.085 53.584 457.445 53.552 457.317 53.488C457.125 53.424 457.029 53.28 457.029 53.056L457.509 51.184C457.637 50.992 457.973 50.912 458.517 50.944C458.677 50.944 459.013 50.944 459.525 50.944C464.709 51.072 468.309 51.056 470.325 50.896H470.757L470.901 51.04C471.029 51.168 471.093 51.28 471.093 51.376L470.661 53.248C470.597 53.472 470.261 53.584 469.653 53.584C468.629 53.584 467.989 53.632 467.733 53.728C467.669 53.76 467.589 53.824 467.493 53.92C467.461 53.984 467.029 55.632 466.197 58.864C465.397 62.096 464.965 63.744 464.901 63.808C464.773 64 464.629 64.064 464.469 64C464.085 63.872 463.445 63.328 462.549 62.368C462.421 62.24 462.325 62.128 462.261 62.032L461.973 61.696L461.589 62.08C459.893 63.584 457.733 64.528 455.109 64.912C454.021 65.072 452.789 65.088 451.413 64.96C448.725 64.512 446.549 63.408 444.885 61.648C444.117 60.88 443.477 59.984 442.965 58.96C442.197 57.52 441.717 55.904 441.525 54.112C441.397 53.312 441.381 52.192 441.477 50.752C441.509 50.592 441.525 50.464 441.525 50.368C441.909 46.784 443.157 43.376 445.269 40.144C445.909 39.248 446.469 38.512 446.949 37.936C447.813 36.88 448.885 35.808 450.165 34.72C453.429 32.064 456.853 30.56 460.437 30.208Z" fill="white"/>
<path d="M423.153 31.2639C423.217 31.2319 423.489 31.2159 423.969 31.2159C427.649 31.3759 431.553 31.3919 435.681 31.2639C436.673 31.2319 437.233 31.3119 437.361 31.5039C437.425 31.5999 437.393 31.9679 437.265 32.6079C437.105 33.3439 436.945 33.7439 436.785 33.8079C436.625 33.8719 436.065 33.9039 435.105 33.9039C433.601 33.9359 432.721 34.0159 432.465 34.1439C432.305 34.2079 432.193 34.3199 432.129 34.4799C431.969 34.9279 430.833 39.3439 428.721 47.7279C426.513 56.5919 425.425 61.0399 425.457 61.0719C425.521 61.2319 426.545 61.3119 428.529 61.3119H429.585L429.777 61.4559C429.873 61.5839 429.921 61.6959 429.921 61.7919L429.489 63.7119C429.393 63.9039 429.057 63.9839 428.481 63.9519C428.321 63.9519 428.017 63.9519 427.569 63.9519C422.577 63.8239 418.673 63.8399 415.857 63.9999H415.281L415.137 63.8559C415.009 63.7279 414.945 63.6159 414.945 63.5199L415.377 61.5999C415.473 61.4079 415.921 61.3119 416.721 61.3119C416.881 61.3119 417.073 61.3119 417.297 61.3119C418.993 61.2799 419.969 61.1519 420.225 60.9279C420.257 60.8959 421.393 56.4479 423.633 47.5839C425.841 38.7519 426.945 34.3039 426.945 34.2399C426.945 34.2079 426.913 34.1599 426.849 34.0959C426.689 33.9999 425.857 33.9359 424.353 33.9039H422.817L422.625 33.7119C422.465 33.5519 422.481 33.1199 422.673 32.4159C422.865 31.7439 423.025 31.3599 423.153 31.2639Z" fill="white"/>
<path d="M402.536 30.256C403.496 30.096 404.488 30.128 405.512 30.352C406.472 30.544 407.32 30.88 408.056 31.36C408.44 31.616 408.888 32.032 409.4 32.608C409.496 32.768 409.56 32.864 409.592 32.896L410.888 31.552C411.784 30.656 412.248 30.208 412.28 30.208C412.28 30.176 412.424 30.16 412.712 30.16C413.064 30.16 413.288 30.256 413.384 30.448C413.416 30.576 412.968 32.496 412.04 36.208C411.08 39.984 410.568 41.904 410.504 41.968L410.36 42.112H409.352C408.52 42.112 408.072 42.032 408.008 41.872C407.976 41.744 407.992 41.472 408.056 41.056C408.568 37.696 408.152 35.344 406.808 34C406.072 33.232 405.016 32.8 403.64 32.704C402.072 32.672 400.648 33.296 399.368 34.576C398.696 35.248 398.184 35.936 397.832 36.64C397.256 37.856 396.984 39.024 397.016 40.144C397.048 40.88 397.176 41.456 397.4 41.872C397.72 42.544 398.168 43.024 398.744 43.312C398.808 43.344 399.832 43.664 401.816 44.272C404.024 44.912 405.336 45.36 405.752 45.616C407.8 46.8 408.856 48.864 408.92 51.808C408.952 54.144 408.296 56.48 406.952 58.816C405.928 60.64 404.536 62.144 402.776 63.328C401.56 64.128 400.296 64.656 398.984 64.912C398.664 64.976 398.136 65.008 397.4 65.008C396.312 65.008 395.384 64.912 394.616 64.72C393.048 64.304 391.784 63.6 390.824 62.608L390.44 62.224L389.144 63.568L387.752 65.008L387.272 65.056H387.224C386.968 65.056 386.792 65.008 386.696 64.912C386.6 64.816 386.552 64.736 386.552 64.672C386.552 64.576 387.48 60.816 389.336 53.392C389.56 53.2 390.008 53.104 390.68 53.104H391.688L391.832 53.248C391.96 53.376 391.976 53.696 391.88 54.208C391.88 54.272 391.864 54.352 391.832 54.448C391.448 56.336 391.544 57.92 392.12 59.2C392.792 60.864 394.2 61.872 396.344 62.224C397.272 62.384 398.008 62.416 398.552 62.32C400.248 62.032 401.72 60.896 402.968 58.912C403.448 58.144 403.816 57.328 404.072 56.464C404.264 55.76 404.36 54.976 404.36 54.112C404.36 53.28 404.264 52.64 404.072 52.192C403.752 51.392 403.272 50.848 402.632 50.56C402.408 50.432 401.368 50.096 399.512 49.552C397.592 49.008 396.456 48.656 396.104 48.496C395.464 48.176 394.872 47.744 394.328 47.2C392.92 45.728 392.312 43.808 392.504 41.44C392.696 39.136 393.544 36.944 395.048 34.864C395.848 33.872 396.696 33.04 397.592 32.368C399.192 31.152 400.84 30.448 402.536 30.256Z" fill="white"/>
</svg>
