<svg width="80" height="80" viewBox="0 0 80 80" fill="none" xmlns="http://www.w3.org/2000/svg">
<rect width="80" height="80" rx="19" fill="#FBFF00"/>
<path d="M28.42 48.4799V79.9899H18.15C8.13 79.9899 0 71.87 0 61.84V34.7H14.65C22.25 34.7 28.42 40.87 28.42 48.47V48.4799Z" fill="black"/>
<path d="M79.62 14.41H67.64C55.21 14.42 45.14 24.5 45.12 36.93V80H37.16V48.48C37.14 36.05 27.07 25.98 14.64 25.97H0V18.13C0 8.12 8.13 0 18.15 0H61.86C70.44 0 77.85 6.02 79.62 14.41Z" fill="black"/>
<path d="M80 23.1599V61.8499C80 71.8699 71.88 79.9999 61.85 79.9999H53.85V36.9299C53.86 29.3299 60.02 23.1699 67.62 23.1599H79.99H80Z" fill="black"/>
</svg>
